<?xml version="1.0" encoding="UTF-8" standalone="no"?>
<!DOCTYPE svg PUBLIC "-//W3C//DTD SVG 1.1 Basic//EN" "http://www.w3.org/Graphics/SVG/1.1/DTD/svg11-basic.dtd">
<svg width="100" height="86.6025403784" viewBox="0 0 100 86.6025403784" xmlns="http://www.w3.org/2000/svg">
	<polygon points="37.5,21.6506 62.5,21.6506 75,43.301235094611 62.5,64.9518701892219 37.5,64.9518701892219 25,43.301235094611" fill="#9c573d" />
	<g transform="translate(39.76,32) scale(0.04)">
		<path d="M133.787 231.579h34.373v51.349h-34.373zM209.393 231.579h34.373v51.349h-34.373zM133.787 318.592h34.373v51.341h-34.373z"/>
		<path d="M418.556 323.692c-.01-.063-.007-.126-.02-.19a9.266 9.266 0 0 0-.695-2.081c-.029-.057-.031-.117-.06-.174l-27.405-56.709v-41.37h-18.9v34.084h-68.305a9.455 9.455 0 0 0-8.507 5.336l-10.393 21.5v-88.929a9.431 9.431 0 0 0-2.406-6.3l-86.04-96.254a9.453 9.453 0 0 0-14.09 0l-34.407 38.483v-22.107h-18.9v43.247L95.68 188.86a9.467 9.467 0 0 0-2.407 6.3v217.936a9.451 9.451 0 0 0 9.45 9.45h306.552a9.447 9.447 0 0 0 9.45-9.45v-87.73a9.406 9.406 0 0 0-.17-1.673zM112.174 204.609h153.197v199.036h-21.605v-85.05h-34.373v85.05h-97.219zm287.652 199.033h-36.458v-45.81h-42.639v45.81h-36.458v-68.827h115.555z"/>
	</g>
	<g transform="rotate(  0, 50, 43.3012701892)" width="100" height="86.6025403784" viewBox="0 0 100 86.6025403784">
		<polygon points="25,0 75,0 62.5,21.6506 37.5,21.6506" fill="#ffc03b" />
	</g>
	<g transform="rotate( 60, 50, 43.3012701892)" width="100" height="86.6025403784" viewBox="0 0 100 86.6025403784">
		<polygon points="25,0 75,0 62.5,21.6506 37.5,21.6506" fill="#6e5726" />
	</g>
	<g transform="rotate(120, 50, 43.3012701892)" width="100" height="86.6025403784" viewBox="0 0 100 86.6025403784">
		<polygon points="25,0 75,0 62.5,21.6506 37.5,21.6506" fill="#9c573d" />
	</g>
	<g transform="rotate(180, 50, 43.3012701892)" width="100" height="86.6025403784" viewBox="0 0 100 86.6025403784">
		<polygon points="25,0 75,0 62.5,21.6506 37.5,21.6506" fill="#677437" />
	</g>
	<g transform="rotate(240, 50, 43.3012701892)" width="100" height="86.6025403784" viewBox="0 0 100 86.6025403784">
		<polygon points="25,0 75,0 62.5,21.6506 37.5,21.6506" fill="#ac917b" />
	</g>
	<g transform="rotate(300, 50, 43.3012701892)" width="100" height="86.6025403784" viewBox="0 0 100 86.6025403784">
		<polygon points="25,0 75,0 62.5,21.6506 37.5,21.6506" fill="#99c4b8" />
	</g>

</svg>

